<?xml version="1.0" encoding="UTF-8"?>
<!-- Generator: https://ezgif.com/png-to-svg -->
<svg version="1.1" xmlns="http://www.w3.org/2000/svg" width="500" height="500">
<path d="M0 0 C6.6 0 13.2 0 20 0 C23.36 7.83 23.36 7.83 24.49 11.84 C25.93 16.81 27.53 21.72 29.19 26.62 C29.8 28.44 30.41 30.26 31.02 32.08 C31.33 33.03 31.65 33.98 31.98 34.96 C33.81 40.41 35.62 45.86 37.44 51.31 C38.12 53.37 38.81 55.43 39.5 57.49 C40 58.99 40.5 60.5 41 62 C44.51 51.6 47.95 41.18 51.32 30.73 C51.62 29.84 51.91 28.94 52.21 28.01 C53.69 23.42 55.17 18.84 56.64 14.25 C57.2 12.54 57.75 10.82 58.3 9.11 C58.56 8.31 58.82 7.5 59.08 6.68 C60.89 1.11 60.89 1.11 62 0 C63.49 -0.09 64.98 -0.11 66.47 -0.1 C67.37 -0.09 68.27 -0.09 69.2 -0.09 C70.62 -0.08 70.62 -0.08 72.06 -0.06 C73.49 -0.06 73.49 -0.06 74.94 -0.05 C77.29 -0.04 79.65 -0.02 82 0 C84.97 14.3 87.18 28.66 89.16 43.12 C90.36 51.83 91.75 60.49 93.31 69.14 C94.18 74 94.96 78.87 95.69 83.75 C95.82 84.59 95.95 85.42 96.08 86.28 C96.2 87.09 96.32 87.9 96.45 88.73 C96.56 89.44 96.66 90.14 96.77 90.87 C97.02 93.23 97 95.62 97 98 C90.4 98 83.8 98 77 98 C74.84 85.34 72.72 72.69 71.04 59.95 C70.93 59.15 70.82 58.36 70.71 57.53 C70.58 56.5 70.58 56.5 70.44 55.46 C69.81 51.92 68.89 48.48 68 45 C67.68 46.02 67.36 47.05 67.04 48.1 C65.85 51.93 64.66 55.75 63.47 59.57 C62.95 61.22 62.44 62.87 61.93 64.52 C61.19 66.9 60.44 69.28 59.7 71.66 C59.47 72.39 59.25 73.12 59.02 73.87 C57.6 78.39 55.9 82.66 54 87 C53.4 88.97 52.83 90.95 52.31 92.94 C51.88 94.61 51.45 96.28 51 98 C44.73 98 38.46 98 32 98 C26.64 84.84 22.13 71.6 18 58 C17.7 57.03 17.39 56.06 17.08 55.06 C16.81 54.18 16.53 53.29 16.25 52.38 C15.89 51.21 15.89 51.21 15.52 50.02 C15 48 15 48 15 45 C14.34 45 13.68 45 13 45 C12.92 45.63 12.84 46.27 12.76 46.92 C9.88 69.48 9.88 69.48 8 80 C7.75 81.49 7.5 82.97 7.25 84.46 C6.98 86.03 6.71 87.61 6.44 89.19 C6.31 89.94 6.18 90.7 6.05 91.48 C5.11 96.89 5.11 96.89 4 98 C2.58 98.09 1.16 98.11 -0.25 98.1 C-1.11 98.09 -1.96 98.09 -2.84 98.09 C-3.74 98.08 -4.64 98.07 -5.56 98.06 C-6.46 98.06 -7.37 98.05 -8.29 98.05 C-10.53 98.04 -12.76 98.02 -15 98 C-15.14 92.96 -14.65 88.3 -13.69 83.38 C-12.48 76.91 -11.46 70.45 -10.56 63.94 C-9.36 55.26 -7.96 46.62 -6.49 37.98 C-5.19 30.32 -4.05 22.65 -3.04 14.95 C-2.93 14.15 -2.82 13.35 -2.71 12.53 C-2.62 11.85 -2.53 11.16 -2.44 10.46 C-1.81 6.93 -0.87 3.47 0 0 Z " fill="#080808" transform="translate(369,201)"/>
<path d="M0 0 C45.8 0 45.8 0 55 6 C55 6.66 55 7.32 55 8 C55.99 8.33 56.98 8.66 58 9 C59.35 10.96 59.35 10.96 60.62 13.38 C61.26 14.56 61.26 14.56 61.91 15.77 C64.17 20.39 64.25 24.65 64.31 29.69 C64.36 30.85 64.36 30.85 64.4 32.04 C64.48 39.13 62.54 44.19 57.78 49.46 C57.03 50.09 56.28 50.72 55.5 51.38 C54.75 52.02 53.99 52.67 53.22 53.34 C51.2 54.85 49.27 55.91 47 57 C47.35 57.62 47.7 58.24 48.07 58.87 C59.88 79.64 59.88 79.64 64.81 88.75 C65.75 90.47 65.75 90.47 66.71 92.23 C68 95 68 95 68 98 C48.47 99.79 48.47 99.79 43.19 95.97 C41.38 93.05 40.17 90.23 39 87 C38.04 85.05 37.06 83.11 36.06 81.19 C35.59 80.2 35.11 79.22 34.62 78.21 C32.44 73.88 30.01 69.71 27.54 65.54 C25 61.21 25 61.21 25 59 C23.68 59 22.36 59 21 59 C21 71.87 21 84.74 21 98 C14.07 98 7.14 98 0 98 C0 65.66 0 33.32 0 0 Z M21 20 C21 26.27 21 32.54 21 39 C24.77 39.12 24.77 39.12 28.62 39.25 C29.41 39.29 30.19 39.32 30.99 39.36 C36.08 39.44 39.02 38.44 43 35 C44.29 30.91 44.25 28.74 42.88 24.69 C40.66 21.51 39.67 21.07 36 20 C33.34 19.86 30.83 19.81 28.19 19.88 C25.82 19.92 23.44 19.96 21 20 Z " fill="#131313" transform="translate(186,201)"/>
<path d="M0 0 C6.93 0 13.86 0 21 0 C21.73 1.99 22.46 3.99 23.21 6.04 C30.49 25.86 38.06 45.55 45.82 65.18 C57 93.53 57 93.53 57 98 C49.74 98 42.48 98 35 98 C32.69 92.06 30.38 86.12 28 80 C16.12 79.67 4.24 79.34 -8 79 C-8.99 82.3 -9.98 85.6 -11 89 C-12.32 91.97 -13.64 94.94 -15 98 C-21.93 98 -28.86 98 -36 98 C-35.26 93.56 -34.5 90.26 -32.96 86.14 C-32.55 85.03 -32.14 83.93 -31.71 82.79 C-31.05 81.04 -31.05 81.04 -30.38 79.25 C-29.92 78.04 -29.47 76.84 -29.01 75.59 C-26.2 68.11 -23.33 60.66 -20.41 53.23 C-18.21 47.62 -16.19 41.95 -14.2 36.26 C-5.09 10.17 -5.09 10.17 0 0 Z M10 32 C9.61 32.97 9.23 33.93 8.83 34.93 C8.58 35.56 8.33 36.18 8.07 36.83 C7.52 38.2 6.97 39.57 6.43 40.94 C5.2 44.01 3.96 47.09 2.71 50.15 C2.35 51.03 1.99 51.91 1.62 52.81 C1.31 53.58 0.99 54.35 0.66 55.14 C-0.11 56.99 -0.11 56.99 0 59 C6.6 59 13.2 59 20 59 C19.35 55.74 18.81 53.22 17.66 50.22 C17.27 49.2 17.27 49.2 16.88 48.17 C16.61 47.47 16.34 46.78 16.06 46.06 C14.27 41.4 12.54 36.75 11 32 C10.67 32 10.34 32 10 32 Z " fill="#304115" transform="translate(293,201)"/>
<path d="M0 0 C9.22 -0.02 18.44 -0.04 27.94 -0.06 C32.31 -0.08 32.31 -0.08 36.77 -0.09 C39.06 -0.09 41.36 -0.1 43.65 -0.1 C44.86 -0.1 46.06 -0.11 47.3 -0.11 C48.44 -0.11 49.57 -0.11 50.75 -0.11 C51.74 -0.12 52.73 -0.12 53.75 -0.12 C56 0 56 0 57 1 C57.1 2.33 57.13 3.67 57.13 5 C57.13 6.21 57.13 6.21 57.14 7.44 C57.13 8.28 57.13 9.13 57.12 10 C57.13 11.27 57.13 11.27 57.14 12.56 C57.14 13.37 57.13 14.17 57.13 15 C57.13 15.74 57.13 16.49 57.13 17.25 C57 19 57 19 56 20 C53.41 20.09 50.84 20.12 48.25 20.1 C47.47 20.1 46.7 20.09 45.9 20.09 C43.41 20.09 40.92 20.08 38.44 20.06 C36.76 20.06 35.07 20.05 33.39 20.05 C29.26 20.04 25.13 20.02 21 20 C21 25.28 21 30.56 21 36 C32.55 36 44.1 36 56 36 C56 42.6 56 49.2 56 56 C44.45 56 32.9 56 21 56 C21 63.26 21 70.52 21 78 C32.55 78 44.1 78 56 78 C56 84.6 56 91.2 56 98 C37.52 98 19.04 98 0 98 C0 65.66 0 33.32 0 0 Z " fill="#1A1A19" transform="translate(118,201)"/>
<path d="M0 0 C0 0.66 0 1.32 0 2 C0.66 2 1.32 2 2 2 C2 2.66 2 3.32 2 4 C2.66 4 3.32 4 4 4 C6 7 6 7 6 9.38 C4.53 13.23 2.34 14.61 -1 17 C-1.66 17 -2.32 17 -3 17 C-3 17.66 -3 18.32 -3 19 C-3.66 19 -4.32 19 -5 19 C-5 19.66 -5 20.32 -5 21 C-6.81 21.69 -6.81 21.69 -9 22 C-10.75 20.69 -10.75 20.69 -12 19 C-12 18.34 -12 17.68 -12 17 C-12.66 17 -13.32 17 -14 17 C-14 16.34 -14 15.68 -14 15 C-18.93 13.03 -22.76 12.65 -28 13 C-30.32 14.88 -30.32 14.88 -30.19 17.94 C-30.13 21.04 -30.13 21.04 -29 24 C-27.15 25.08 -27.15 25.08 -25 26 C-22.2 27.76 -19.48 29.63 -16.75 31.5 C-16 32 -15.26 32.5 -14.49 33.01 C-13.79 33.49 -13.08 33.97 -12.36 34.47 C-11.71 34.91 -11.07 35.34 -10.41 35.79 C-9.94 36.19 -9.48 36.59 -9 37 C-9 37.66 -9 38.32 -9 39 C-8.41 39.26 -7.82 39.53 -7.22 39.8 C-0.67 43.35 4.11 50.04 7.25 56.62 C9.2 65.42 8.67 73.22 4 81 C1.88 84.06 1.88 84.06 0 86 C-0.66 86 -1.32 86 -2 86 C-2 86.66 -2 87.32 -2 88 C-12.5 94.92 -22.83 95.81 -35.02 93.4 C-44.58 90.16 -51.86 82.53 -56.26 73.65 C-56.5 73.11 -56.75 72.56 -57 72 C-54.77 68.66 -53.18 67.75 -49.69 65.88 C-48.74 65.36 -47.8 64.84 -46.82 64.3 C-44.17 63.08 -41.88 62.43 -39 62 C-38.53 62.63 -38.06 63.25 -37.57 63.9 C-36.95 64.72 -36.33 65.53 -35.69 66.38 C-35.07 67.19 -34.46 68 -33.82 68.84 C-31.56 71.53 -29.97 72.91 -26.41 73.23 C-24.97 73.21 -24.97 73.21 -23.5 73.19 C-22.54 73.18 -21.58 73.17 -20.59 73.17 C-17.89 73.1 -17.89 73.1 -15 72 C-13.74 66.57 -13.74 66.57 -15.44 61.62 C-15.95 61.09 -16.47 60.55 -17 60 C-17 59.34 -17 58.68 -17 58 C-17.52 57.76 -18.04 57.53 -18.58 57.28 C-21.79 55.58 -24.76 53.56 -27.75 51.5 C-28.35 51.1 -28.95 50.69 -29.57 50.28 C-31.09 49.24 -32.55 48.12 -34 47 C-34 46.34 -34 45.68 -34 45 C-34.59 44.72 -35.18 44.45 -35.79 44.16 C-43.34 40.2 -49.31 33.08 -52 25 C-52.77 16.87 -53.25 9.58 -47.9 2.93 C-34.56 -10.63 -15.33 -12.43 0 0 Z " fill="#090908" transform="translate(99,207)"/>
<path d="M0 0 C1.94 0.81 1.94 0.81 4 2 C4.33 2.99 4.66 3.98 5 5 C6.24 5.5 6.24 5.5 7.5 6 C8.74 6.5 8.74 6.5 10 7 C10.5 8.49 10.5 8.49 11 10 C11.82 10.08 12.65 10.17 13.5 10.25 C17.89 11.19 21.45 12.17 25 15 C27.18 18.53 28.48 22.27 29.81 26.19 C30.18 27.19 30.55 28.19 30.93 29.23 C31.99 32.14 33 35.07 34 38 C34.31 38.87 34.61 39.74 34.93 40.64 C35.2 41.43 35.48 42.23 35.76 43.05 C36 43.74 36.24 44.44 36.49 45.15 C37 47 37 47 37 50 C29.74 50 22.48 50 15 50 C14.01 47.63 13.02 45.26 12 42.81 C11.69 42.07 11.37 41.34 11.05 40.58 C9.45 36.66 9 34.35 9 30 C-1.23 30 -11.46 30 -22 30 C-21.5 21.09 -21.5 21.09 -21 12 C-13.41 12 -5.82 12 2 12 C1.01 9.69 0.02 7.38 -1 5 C-0.69 2.06 -0.69 2.06 0 0 Z " fill="#16180C" transform="translate(313,249)"/>
<path d="M0 0 C2.14 2.14 2.43 3.13 3 6 C2.34 6.33 1.68 6.66 1 7 C1.5 9.97 1.5 9.97 2 13 C0.05 11.05 -0.85 9.47 -2 7 C-2.39 8.13 -2.77 9.27 -3.17 10.44 C-3.7 11.96 -4.22 13.48 -4.75 15 C-5.13 16.12 -5.13 16.12 -5.52 17.25 C-5.77 18 -6.03 18.74 -6.3 19.5 C-6.53 20.17 -6.76 20.84 -7 21.53 C-8.45 25.11 -10.27 28.54 -12 32 C-5.4 32 1.2 32 8 32 C8.5 30.51 8.5 30.51 9 29 C9.5 30.98 9.5 30.98 10 33 C2.74 33.33 -4.52 33.66 -12 34 C-12.14 36.25 -12.29 38.5 -12.44 40.81 C-12.88 47.62 -12.88 47.62 -14 51 C-3.77 51 6.46 51 17 51 C16.5 51.99 16.5 51.99 16 53 C4.12 52.67 -7.76 52.34 -20 52 C-20.99 55.3 -21.98 58.6 -23 62 C-24.32 64.97 -25.64 67.94 -27 71 C-33.93 71 -40.86 71 -48 71 C-47.26 66.56 -46.5 63.26 -44.96 59.14 C-44.55 58.03 -44.14 56.93 -43.71 55.79 C-43.05 54.04 -43.05 54.04 -42.38 52.25 C-41.92 51.05 -41.47 49.84 -41.01 48.6 C-37.66 39.69 -34.25 30.81 -30.76 21.95 C-28.82 16.98 -26.91 11.99 -25 7 C-24.45 9.08 -24 10.84 -24 13 C-23.34 13 -22.68 13 -22 13 C-22 16.63 -22 20.26 -22 24 C-18.9 23.35 -18.9 23.35 -18 21.06 C-17.67 20.38 -17.34 19.7 -17 19 C-16.01 18.34 -15.02 17.68 -14 17 C-12.8 14.45 -12.8 14.45 -12 12 C-11.01 12.33 -10.02 12.66 -9 13 C-8.01 12.67 -7.02 12.34 -6 12 C-6.51 9.83 -7 8 -8 6 C-6.35 6 -4.7 6 -3 6 C-2.69 5.38 -2.38 4.76 -2.06 4.12 C-1.38 2.75 -0.69 1.38 0 0 Z " fill="#668042" transform="translate(305,228)"/>
<path d="M0 0 C0.99 0.33 1.98 0.66 3 1 C2.97 1.61 2.93 2.23 2.89 2.86 C2.87 3.67 2.84 4.48 2.81 5.31 C2.78 6.11 2.74 6.91 2.71 7.74 C3.06 10.48 3.89 11.29 6 13 C5.61 13.75 5.23 14.5 4.83 15.27 C1.54 21.74 -1.45 28.21 -4 35 C-2.85 34.48 -2.85 34.48 -1.68 33.95 C1 33 1 33 3.81 33.88 C4.53 34.25 5.26 34.62 6 35 C5.01 37.97 4.02 40.94 3 44 C1.02 43.67 -0.96 43.34 -3 43 C-1.51 47.95 -1.51 47.95 0 53 C-6.84 53.2 -6.84 53.2 -9 53 C-9.66 52.34 -10.32 51.68 -11 51 C-11.66 51.99 -12.32 52.98 -13 54 C-16.62 54.19 -16.62 54.19 -20 54 C-19.5 46.77 -17.24 40.66 -14.62 33.94 C-14.23 32.89 -13.83 31.84 -13.41 30.76 C-7.08 14.21 -7.08 14.21 -4 11 C-3.01 11 -2.02 11 -1 11 C-1.01 10.29 -1.02 9.58 -1.04 8.85 C-1.04 7.93 -1.05 7.01 -1.06 6.06 C-1.07 5.15 -1.09 4.23 -1.1 3.29 C-1 1 -1 1 0 0 Z " fill="#374B1D" transform="translate(278,244)"/>
<path d="M0 0 C1.68 2.52 2.73 4.58 3.84 7.35 C4.18 8.2 4.52 9.06 4.87 9.93 C5.22 10.82 5.58 11.71 5.94 12.62 C6.28 13.49 6.63 14.35 6.99 15.25 C13 30.34 13 30.34 13 35 C5.74 35 -1.52 35 -9 35 C-11 30 -11 30 -10 27 C-9.67 27.66 -9.34 28.32 -9 29 C-5.52 25.2 -4.34 22.29 -3.44 17.25 C-2.81 13.77 -2.81 13.77 -2 11 C-1.01 10.67 -0.02 10.34 1 10 C0.67 6.7 0.34 3.4 0 0 Z " fill="#5C7D24" transform="translate(337,264)"/>
<path d="M0 0 C6.93 0 13.86 0 21 0 C21.33 1.98 21.66 3.96 22 6 C21.01 6 20.02 6 19 6 C16.73 7.69 16.73 7.69 15 10 C15 11.32 15 12.64 15 14 C14.34 14 13.68 14 13 14 C11.25 11.38 10.61 9.96 10 7 C14.31 3.06 14.31 3.06 17.81 2.75 C18.53 2.83 19.26 2.91 20 3 C20 2.34 20 1.68 20 1 C13.73 1 7.46 1 1 1 C1 2.32 1 3.64 1 5 C2.32 5 3.64 5 5 5 C10.38 9.71 12.42 16.25 14 23 C8.09 22.61 3.24 21.84 -2 19 C-2.33 18.01 -2.66 17.02 -3 16 C-3.66 16 -4.32 16 -5 16 C-5 17.98 -5 19.96 -5 22 C-5.99 22.33 -6.98 22.66 -8 23 C-6.51 14.85 -3.71 7.42 0 0 Z " fill="#2D3E15" transform="translate(293,201)"/>
<path d="M0 0 C1.02 0.98 2.02 1.98 3 3 C3.66 3 4.32 3 5 3 C6.61 6.21 6.06 9.44 6 13 C8.47 13.5 8.47 13.5 11 14 C11 14.66 11 15.32 11 16 C10.34 16 9.68 16 9 16 C9 16.66 9 17.32 9 18 C3.39 18 -2.22 18 -8 18 C-8.66 15.69 -9.32 13.38 -10 11 C-10.66 11 -11.32 11 -12 11 C-12 9.68 -12 8.36 -12 7 C-11.01 7 -10.02 7 -9 7 C-9 5.02 -9 3.04 -9 1 C-5.62 -0.6 -3.53 -1.53 0 0 Z " fill="#010101" transform="translate(240,279)"/>
<path d="M0 0 C0.99 0.33 1.98 0.66 3 1 C2.97 1.61 2.93 2.23 2.89 2.86 C2.87 3.67 2.84 4.48 2.81 5.31 C2.78 6.11 2.74 6.91 2.71 7.74 C3.06 10.48 3.89 11.29 6 13 C5.6 13.77 5.2 14.55 4.79 15.34 C1.23 22.31 1.23 22.31 -1.69 29.56 C-3.42 34.11 -3.42 34.11 -6 36 C-8.19 35.69 -8.19 35.69 -10 35 C-10.25 27.27 -10.24 19.61 -6.06 12.88 C-4 11 -4 11 -1 11 C-1.01 10.29 -1.02 9.58 -1.04 8.85 C-1.05 7.47 -1.05 7.47 -1.06 6.06 C-1.07 5.15 -1.09 4.23 -1.1 3.29 C-1 1 -1 1 0 0 Z " fill="#303824" transform="translate(278,244)"/>
<path d="M0 0 C2.83 2.83 3.81 6.26 5.19 9.94 C5.47 10.67 5.76 11.4 6.05 12.15 C8.12 17.64 8.12 17.64 7 21 C6.01 21 5.02 21 4 21 C3.75 21.64 3.5 22.28 3.25 22.94 C2 25 2 25 0.06 25.81 C-2 26 -2 26 -5 25 C-5.33 25.99 -5.66 26.98 -6 28 C-8.51 26.74 -8.87 25.5 -10 23 C-10.66 23.33 -11.32 23.66 -12 24 C-12.66 22.35 -13.32 20.7 -14 19 C-12.02 19.33 -10.04 19.66 -8 20 C-7.75 18.95 -7.5 17.9 -7.25 16.81 C-6.22 13.18 -4.61 10.77 -2 8 C-1.34 7.67 -0.68 7.34 0 7 C0 4.69 0 2.38 0 0 Z " fill="#3A4E1E" transform="translate(315,207)"/>
<path d="M0 0 C2.15 3.23 2.2 4.28 2 8 C2.66 7.67 3.32 7.34 4 7 C4.66 8.98 5.32 10.96 6 13 C16.23 13 26.46 13 37 13 C36.67 13.66 36.34 14.32 36 15 C24.12 14.67 12.24 14.34 0 14 C-0.99 17.3 -1.98 20.6 -3 24 C-4.98 28.45 -4.98 28.45 -7 33 C-13.93 33 -20.86 33 -28 33 C-27.67 31.68 -27.34 30.36 -27 29 C-27 29.99 -27 30.98 -27 32 C-24.69 32 -22.38 32 -20 32 C-19.9 31.38 -19.79 30.76 -19.69 30.12 C-19 28 -19 28 -16 26 C-16 27.32 -16 28.64 -16 30 C-13.03 30.33 -10.06 30.66 -7 31 C-7.5 30.42 -7.99 29.85 -8.5 29.25 C-10.39 26.41 -10 24.32 -10 21 C-8.02 21 -6.04 21 -4 21 C-3.86 19.87 -3.71 18.73 -3.56 17.56 C-3 14 -3 14 -2 13 C-5.58 12 -5.58 12 -9 13 C-8.34 11.35 -7.68 9.7 -7 8 C-5.68 8.33 -4.36 8.66 -3 9 C-3.33 8.01 -3.66 7.02 -4 6 C-3.01 5.34 -2.02 4.68 -1 4 C-0.28 1.94 -0.28 1.94 0 0 Z " fill="#7E8C6A" transform="translate(285,266)"/>
<path d="M0 0 C0.66 0.33 1.32 0.66 2 1 C2 2.32 2 3.64 2 5 C1.34 5 0.68 5 0 5 C-0.19 10.53 0.25 14.76 2 20 C3.32 20.33 4.64 20.66 6 21 C5.67 21.99 5.34 22.98 5 24 C4.34 24.33 3.68 24.66 3 25 C3.33 25.99 3.66 26.98 4 28 C3.01 28 2.02 28 1 28 C0.34 26.35 -0.32 24.7 -1 23 C-1.66 23 -2.32 23 -3 23 C-2.69 21.61 -2.69 21.61 -2.38 20.19 C-1.63 16.85 -1.63 16.85 -4 14 C-4.66 15.32 -5.32 16.64 -6 18 C-8.52 17.66 -10.52 17.3 -12.69 15.94 C-14.77 12.87 -15.23 9.61 -16 6 C-14.02 6.99 -14.02 6.99 -12 8 C-11.67 6.68 -11.34 5.36 -11 4 C-10.3 4.27 -9.6 4.54 -8.88 4.81 C-5.54 5.03 -5.13 4.63 -2.69 2.56 C-1.36 1.29 -1.36 1.29 0 0 Z " fill="#171B0B" transform="translate(321,227)"/>
<path d="M0 0 C1.94 0.81 1.94 0.81 4 2 C4.33 2.99 4.66 3.98 5 5 C6.24 5.5 6.24 5.5 7.5 6 C8.32 6.33 9.15 6.66 10 7 C10.33 7.99 10.66 8.98 11 10 C11.87 10.1 12.73 10.21 13.62 10.31 C17.27 11.05 19.86 12 23 14 C25.16 17.64 25.19 20.83 25 25 C23.02 25.99 23.02 25.99 21 27 C20.33 25.73 19.66 24.46 19 23.19 C18.44 22.13 18.44 22.13 17.88 21.04 C17 19 17 19 17 16 C16.22 15.69 15.43 15.38 14.62 15.06 C12 14 12 14 10 13 C10 12.34 10 11.68 10 11 C9.34 11 8.68 11 8 11 C8 10.34 8 9.68 8 9 C7.1 8.85 7.1 8.85 6.19 8.69 C3.69 7.9 2.74 6.9 1 5 C0.34 4.67 -0.32 4.34 -1 4 C-0.67 2.68 -0.34 1.36 0 0 Z " fill="#111508" transform="translate(313,249)"/>
<path d="M0 0 C3.48 4.06 6.09 7.35 5.9 12.87 C4.82 19.07 3.56 23.78 0 29 C-0.66 27.68 -1.32 26.36 -2 25 C-2.66 25 -3.32 25 -4 25 C-7.12 18.38 -7.12 18.38 -6 15 C-5.67 15.66 -5.34 16.32 -5 17 C-4.34 17 -3.68 17 -3 17 C0.1 11.41 0.11 6.25 0 0 Z " fill="#333F1B" transform="translate(329,266)"/>
<path d="M0 0 C1.12 3.75 1.12 3.75 0 6 C2.31 5.34 4.62 4.68 7 4 C7 3.01 7 2.02 7 1 C9.64 1.33 12.28 1.66 15 2 C15 3.32 15 4.64 15 6 C16.32 6.66 17.64 7.32 19 8 C18 10 18 10 16 11 C16 12.65 16 14.3 16 16 C15.34 16.33 14.68 16.66 14 17 C14 16.34 14 15.68 14 15 C12.02 15 10.04 15 8 15 C8 13.68 8 12.36 8 11 C9.32 11 10.64 11 12 11 C11.67 10.34 11.34 9.68 11 9 C8.88 8.31 8.88 8.31 6.44 7.88 C5.61 7.71 4.78 7.54 3.93 7.37 C3.3 7.25 2.66 7.12 2 7 C2 7.99 2 8.98 2 10 C1.34 10 0.68 10 0 10 C0 9.34 0 8.68 0 8 C-0.66 8 -1.32 8 -2 8 C-2.33 8.99 -2.66 9.98 -3 11 C-2.45 7.05 -1.61 3.65 0 0 Z " fill="#3E5A13" transform="translate(284,224)"/>
<path d="M0 0 C2.49 2.49 3.03 4.6 4.12 7.94 C4.48 9 4.83 10.06 5.2 11.15 C6 14 6 14 6 17 C-1.26 17 -8.52 17 -16 17 C-18 12 -18 12 -17 9 C-16.67 9.66 -16.34 10.32 -16 11 C-14.68 10.34 -13.36 9.68 -12 9 C-12 10.32 -12 11.64 -12 13 C-10.68 13 -9.36 13 -8 13 C-8 13.66 -8 14.32 -8 15 C-6.35 15 -4.7 15 -3 15 C-2.9 14.36 -2.79 13.72 -2.69 13.06 C-2.35 12.04 -2.35 12.04 -2 11 C-1.01 10.67 -0.02 10.34 1 10 C0.5 5.05 0.5 5.05 0 0 Z " fill="#919D7D" transform="translate(344,282)"/>
<path d="M0 0 C1.55 -0 1.55 -0 3.13 -0.01 C5.88 0.12 5.88 0.12 8.88 1.12 C9.82 3.85 9.82 3.85 10.56 7.19 C10.81 8.29 11.07 9.4 11.32 10.54 C11.51 11.39 11.69 12.24 11.88 13.12 C8.9 13.12 5.94 13.12 2.88 13.12 C3.06 12.36 3.25 11.6 3.44 10.81 C4.1 8.04 4.1 8.04 2.88 5.12 C1.95 5 1.02 4.88 0.07 4.76 C-1.73 4.51 -1.73 4.51 -3.56 4.25 C-4.76 4.09 -5.95 3.93 -7.18 3.76 C-8.15 3.55 -9.12 3.34 -10.12 3.12 C-10.45 2.46 -10.79 1.81 -11.12 1.12 C-7.36 0.25 -3.86 -0.01 0 0 Z " fill="#33421D" transform="translate(308.125,265.875)"/>
<path d="M0 0 C2.35 2.17 3.88 4.29 5.41 7.09 C5.84 7.87 6.28 8.66 6.72 9.47 C7.16 10.28 7.61 11.1 8.06 11.94 C8.51 12.75 8.96 13.56 9.42 14.4 C10.62 16.59 11.82 18.79 13 21 C13.38 21.69 13.75 22.37 14.14 23.08 C15 25 15 25 15 28 C7.74 28 0.48 28 -7 28 C-7 27.01 -7 26.02 -7 25 C-1.39 25.33 4.22 25.66 10 26 C10 25.34 10 24.68 10 24 C10.66 24 11.32 24 12 24 C11.67 23.34 11.34 22.68 11 22 C9.68 21.67 8.36 21.34 7 21 C6.67 17.7 6.34 14.4 6 11 C5.01 11.33 4.02 11.66 3 12 C2.01 10.68 1.02 9.36 0 8 C0.66 7.01 1.32 6.02 2 5 C1.01 4.67 0.02 4.34 -1 4 C-0.67 2.68 -0.34 1.36 0 0 Z " fill="#868685" transform="translate(239,271)"/>
<path d="M0 0 C0.99 0 1.98 0 3 0 C2.59 1.48 2.17 2.96 1.75 4.44 C1.52 5.26 1.29 6.08 1.05 6.93 C-0.36 11.06 -2.23 15.02 -4 19 C-10.93 19 -17.86 19 -25 19 C-24.67 17.68 -24.34 16.36 -24 15 C-24 15.99 -24 16.98 -24 18 C-21.69 18 -19.38 18 -17 18 C-16.9 17.38 -16.79 16.76 -16.69 16.12 C-16 14 -16 14 -13 12 C-13 13.32 -13 14.64 -13 16 C-10.03 16.33 -7.06 16.66 -4 17 C-4.5 16.42 -4.99 15.85 -5.5 15.25 C-7.39 12.41 -7 10.32 -7 7 C-5.02 7 -3.04 7 -1 7 C-0.67 4.69 -0.34 2.38 0 0 Z " fill="#819366" transform="translate(282,280)"/>
<path d="M0 0 C2.87 2.42 3.71 4.6 4.69 8.19 C5.06 9.54 5.06 9.54 5.45 10.92 C5.63 11.61 5.81 12.29 6 13 C1.03 12.59 -3.45 12.2 -8 10 C-7.67 9.34 -7.34 8.68 -7 8 C-6.34 8 -5.68 8 -5 8 C-5 6.02 -5 4.04 -5 2 C-3.35 1.34 -1.7 0.68 0 0 Z " fill="#4F6811" transform="translate(301,211)"/>
<path d="M0 0 C1.29 3.86 0.22 6.3 -0.98 10.01 C-1.2 10.7 -1.42 11.39 -1.64 12.09 C-2.33 14.29 -3.04 16.49 -3.75 18.69 C-4.21 20.15 -4.67 21.61 -5.13 23.07 C-5.58 24.49 -6.03 25.91 -6.48 27.32 C-6.69 27.97 -6.9 28.62 -7.11 29.29 C-8.4 33.29 -9.81 37.22 -11.33 41.13 C-12.02 43.05 -12.51 45.03 -13 47 C-19.27 47 -25.54 47 -32 47 C-32 46.67 -32 46.34 -32 46 C-26.06 46 -20.12 46 -14 46 C-14.33 43.69 -14.66 41.38 -15 39 C-14.34 39 -13.68 39 -13 39 C-13.66 37.02 -14.32 35.04 -15 33 C-13.68 33 -12.36 33 -11 33 C-9.71 29.25 -8.43 25.5 -7.15 21.74 C-6.51 19.84 -5.85 17.94 -5.2 16.04 C-4.79 14.84 -4.39 13.63 -3.97 12.39 C-3.59 11.29 -3.21 10.18 -2.83 9.05 C-2.05 6.19 -1.83 3.94 -2 1 C-1.34 0.67 -0.68 0.34 0 0 Z " fill="#BBBBBB" transform="translate(433,252)"/>
<path d="M0 0 C2.62 2.62 3.48 5.58 4.69 9 C4.93 9.64 5.16 10.28 5.41 10.95 C6 12.61 6.51 14.3 7 16 C6.67 16.66 6.34 17.32 6 18 C4 17 4 17 2 14 C2 12.68 2 11.36 2 10 C1.67 10.99 1.34 11.98 1 13 C0.01 13 -0.98 13 -2 13 C-2.14 13.72 -2.29 14.44 -2.44 15.19 C-2.96 17.79 -3.48 20.4 -4 23 C-5.32 22.34 -6.64 21.68 -8 21 C-7.6 15.53 -5.56 12.02 -2 8 C-1.34 7.67 -0.68 7.34 0 7 C0 4.69 0 2.38 0 0 Z " fill="#627A3F" transform="translate(315,207)"/>
<path d="M0 0 C2.76 2.76 2.58 5.21 3 9 C2.01 9.33 1.02 9.66 0 10 C-0.7 11.32 -1.37 12.65 -2 14 C-3.62 15.75 -3.62 15.75 -5 17 C-7.95 14.05 -8.09 11.04 -9 7 C-8.34 6.67 -7.68 6.34 -7 6 C-7 7.32 -7 8.64 -7 10 C-6.9 9.22 -6.79 8.43 -6.69 7.62 C-6 5 -6 5 -3 3 C-2.67 2.34 -2.34 1.68 -2 1 C-1.34 0.67 -0.68 0.34 0 0 Z " fill="#35491E" transform="translate(313,205)"/>
<path d="M0 0 C0.55 2.08 1 3.84 1 6 C1.66 6 2.32 6 3 6 C3 9.63 3 13.26 3 17 C3.99 16.67 4.98 16.34 6 16 C5.01 18.47 5.01 18.47 4 21 C3.01 21 2.02 21 1 21 C0.31 17.28 -0.11 13.79 0 10 C-0.66 10 -1.32 10 -2 10 C-2.33 13.3 -2.66 16.6 -3 20 C-3.99 20.33 -4.98 20.66 -6 21 C-6.66 21.66 -7.32 22.32 -8 23 C-7.27 18.36 -5.67 14.18 -4 9.81 C-3.59 8.73 -3.59 8.73 -3.17 7.62 C-1.16 2.33 -1.16 2.33 0 0 Z " fill="#394724" transform="translate(280,235)"/>
<path d="M0 0 C0.66 0.33 1.32 0.66 2 1 C1.22 1.72 0.43 2.44 -0.38 3.19 C-2.84 5.83 -3.93 7.6 -5 11 C-5.66 11 -6.32 11 -7 11 C-7.33 15.95 -7.66 20.9 -8 26 C-6.68 26 -5.36 26 -4 26 C-4 27.98 -4 29.96 -4 32 C-3.01 31.67 -2.02 31.34 -1 31 C-0.92 32.05 -0.84 33.1 -0.75 34.19 C0.05 38.27 1.19 40.01 4 43 C0.47 41.54 -1.32 39.71 -3.62 36.69 C-4.22 35.93 -4.81 35.17 -5.41 34.39 C-10 27.49 -9.97 20 -9 12 C-6.91 7.15 -3.75 3.64 0 0 Z " fill="#727271" transform="translate(56,205)"/>
<path d="M0 0 C6.6 0 13.2 0 20 0 C20.33 1.32 20.66 2.64 21 4 C20.67 3.34 20.34 2.68 20 2 C13.73 2 7.46 2 1 2 C0.67 5.3 0.34 8.6 0 12 C0.66 12 1.32 12 2 12 C1.61 14.84 1.27 16.65 -0.5 18.94 C-2.41 21.56 -2.64 23.82 -3 27 C-3.33 27 -3.66 27 -4 27 C-4.27 20.95 -3.26 15.47 -2 9.56 C-1.34 6.41 -0.68 3.25 0 0 Z M2 11 C4 12 4 12 4 12 Z " fill="#A8A8A7" transform="translate(369,201)"/>
<path d="M0 0 C0.66 0.33 1.32 0.66 2 1 C1.34 1.66 0.68 2.32 0 3 C-0.22 6.4 -0.08 8.76 1 12 C2.31 12.71 3.65 13.37 5 14 C6.94 15.35 8.85 16.72 10.75 18.12 C11.73 18.85 12.72 19.57 13.73 20.32 C14.48 20.87 15.23 21.43 16 22 C13 24 13 24 11 24 C10.93 23.38 10.85 22.75 10.77 22.11 C10.2 19.83 10.2 19.83 8.04 18.95 C7.24 18.72 6.45 18.49 5.62 18.25 C4.83 18.01 4.04 17.77 3.23 17.52 C0.89 16.89 0.89 16.89 -2 17 C-3.69 14.5 -3.69 14.5 -5 12 C-4.34 11.01 -3.68 10.02 -3 9 C-2.83 7.82 -2.67 6.65 -2.5 5.44 C-2 2 -2 2 0 0 Z " fill="#040403" transform="translate(69,219)"/>
<path d="M0 0 C2.14 2.14 2.43 3.13 3 6 C2.01 6.5 2.01 6.5 1 7 C1.33 8.98 1.66 10.96 2 13 C0.05 11.05 -0.85 9.47 -2 7 C-2.41 8.22 -2.82 9.43 -3.24 10.68 C-3.79 12.27 -4.33 13.85 -4.88 15.44 C-5.14 16.24 -5.41 17.04 -5.69 17.87 C-5.96 18.63 -6.22 19.4 -6.49 20.18 C-6.73 20.89 -6.97 21.6 -7.22 22.33 C-8 24 -8 24 -10 25 C-10 24.34 -10 23.68 -10 23 C-10.66 22.67 -11.32 22.34 -12 22 C-10.12 15.25 -10.12 15.25 -9 13 C-8.01 12.67 -7.02 12.34 -6 12 C-6.51 9.83 -7 8 -8 6 C-6.35 6 -4.7 6 -3 6 C-2.69 5.38 -2.38 4.76 -2.06 4.12 C-1.38 2.75 -0.69 1.38 0 0 Z " fill="#A1B27D" transform="translate(305,228)"/>
<path d="M0 0 C0.39 0.52 0.78 1.03 1.19 1.56 C2.08 2.27 2.08 2.27 3 3 C5.65 2.77 5.65 2.77 8 2 C7.71 5.81 7.5 8.33 5.19 11.44 C3 13 3 13 -1 13 C-1 12.34 -1 11.68 -1 11 C-2.65 11.33 -4.3 11.66 -6 12 C-6 11.01 -6 10.02 -6 9 C-3 7 -3 7 0 7 C0 4.69 0 2.38 0 0 Z " fill="#010102" transform="translate(65,233)"/>
<path d="M0 0 C6.6 0 13.2 0 20 0 C20.67 3.35 21.34 6.71 22 10.06 C22.19 11.01 22.38 11.95 22.58 12.92 C23.58 18.05 24.23 22.78 24 28 C23.67 28 23.34 28 23 28 C22.5 23.05 22.5 23.05 22 18 C21.34 18 20.68 18 20 18 C19.43 16.49 18.9 14.96 18.38 13.44 C18.07 12.59 17.77 11.74 17.46 10.87 C16.86 7.15 17.79 4.53 19 1 C16.04 1.11 13.08 1.24 10.12 1.38 C8.86 1.42 8.86 1.42 7.57 1.47 C6.37 1.53 6.37 1.53 5.13 1.59 C4.39 1.62 3.65 1.65 2.88 1.68 C0.76 1.85 0.76 1.85 -1 4 C-0.67 2.68 -0.34 1.36 0 0 Z " fill="#969696" transform="translate(431,201)"/>
<path d="M0 0 C3.66 4.62 4.43 8.08 4 14 C3.01 14.66 2.02 15.32 1 16 C0.67 16.99 0.34 17.98 0 19 C-1.65 19 -3.3 19 -5 19 C-4.81 18.47 -4.61 17.93 -4.41 17.38 C-2.41 11.66 -1.06 5.97 0 0 Z " fill="#141B09" transform="translate(341,278)"/>
<path d="M0 0 C0.66 0.33 1.32 0.66 2 1 C0.62 2.5 0.62 2.5 -1 4 C-1.66 4 -2.32 4 -3 4 C-2.67 4.99 -2.34 5.98 -2 7 C-2.8 7.45 -3.61 7.91 -4.44 8.38 C-7.09 9.75 -7.09 9.75 -8 12 C-7.34 12.33 -6.68 12.66 -6 13 C-6 17 -6 17 -7 19 C-7.82 17.92 -8.63 16.84 -9.44 15.75 C-9.89 15.15 -10.34 14.54 -10.81 13.92 C-12.04 11.94 -12.56 10.28 -13 8 C-11.59 7.04 -10.17 6.08 -8.75 5.12 C-7.96 4.59 -7.17 4.06 -6.36 3.51 C-4.27 2.17 -2.3 0.93 0 0 Z " fill="#686765" transform="translate(55,270)"/>
<path d="M0 0 C6.93 0 13.86 0 21 0 C21.33 1.98 21.66 3.96 22 6 C21.01 6 20.02 6 19 6 C16.73 7.69 16.73 7.69 15 10 C15 11.32 15 12.64 15 14 C14.34 14 13.68 14 13 14 C11.25 11.38 10.61 9.96 10 7 C14.31 3.06 14.31 3.06 17.81 2.75 C18.53 2.83 19.26 2.91 20 3 C20 2.34 20 1.68 20 1 C13.4 1.33 6.8 1.66 0 2 C0 1.34 0 0.68 0 0 Z " fill="#82936C" transform="translate(293,201)"/>
<path d="M0 0 C1.96 2.95 3.3 5.75 4.69 9 C5.37 10.58 5.37 10.58 6.07 12.19 C7 15 7 15 6 18 C5.67 16.68 5.34 15.36 5 14 C4.34 14 3.68 14 3 14 C3 13.34 3 12.68 3 12 C2.01 12 1.02 12 0 12 C0.33 14.31 0.66 16.62 1 19 C0.34 19.33 -0.32 19.66 -1 20 C-2.79 14.1 -3.08 10.07 -2 4 C-1.34 4 -0.68 4 0 4 C0 2.68 0 1.36 0 0 Z " fill="#2B3418" transform="translate(323,228)"/>
<path d="M0 0 C0.33 0.99 0.66 1.98 1 3 C0.67 3.66 0.34 4.32 0 5 C-0.04 7.33 -0.04 9.67 0 12 C0.66 10.02 1.32 8.04 2 6 C2.33 6 2.66 6 3 6 C3.37 9.94 3.3 11.57 1 14.88 C0.34 15.58 -0.32 16.28 -1 17 C-2.32 16.67 -3.64 16.34 -5 16 C-5.39 6.14 -5.39 6.14 -3 2 C-2.01 1.34 -1.02 0.68 0 0 Z " fill="#111805" transform="translate(273,263)"/>
<path d="M0 0 C1.08 0.44 1.08 0.44 2.18 0.88 C2.9 1.17 3.63 1.45 4.38 1.75 C4.93 1.98 5.48 2.21 6.05 2.44 C6.05 3.1 6.05 3.76 6.05 4.44 C5.29 4.28 4.53 4.11 3.74 3.94 C1.02 3.35 1.02 3.35 -1.95 3.44 C-4.37 7.09 -4.11 9.15 -3.95 13.44 C-4.94 13.11 -5.93 12.78 -6.95 12.44 C-6.95 11.78 -6.95 11.12 -6.95 10.44 C-7.94 10.77 -8.93 11.1 -9.95 11.44 C-9.29 8.14 -8.63 4.84 -7.95 1.44 C-7.29 1.44 -6.63 1.44 -5.95 1.44 C-5.95 2.1 -5.95 2.76 -5.95 3.44 C-5.29 3.44 -4.63 3.44 -3.95 3.44 C-3.95 2.45 -3.95 1.46 -3.95 0.44 C-1.95 -0.56 -1.95 -0.56 0 0 Z " fill="#1B2909" transform="translate(289.9453125,230.55859375)"/>
<path d="M0 0 C2 3.56 1.83 5.04 1 9 C1.66 9.66 2.32 10.32 3 11 C2.94 13.5 2.94 13.5 2 16 C-0.56 17.31 -0.56 17.31 -3 18 C-3 18.66 -3 19.32 -3 20 C-3.99 20.33 -4.98 20.66 -6 21 C-4.56 13.78 -2.42 6.95 0 0 Z " fill="#323232" transform="translate(429,205)"/>
<path d="M0 0 C0.66 0 1.32 0 2 0 C1.67 1.32 1.34 2.64 1 4 C2.32 3.67 3.64 3.34 5 3 C3.68 6.3 2.36 9.6 1 13 C-0.65 13 -2.3 13 -4 13 C-4.81 10.09 -5.22 8.54 -4.06 5.69 C-3.71 5.13 -3.36 4.57 -3 4 C-2.34 4 -1.68 4 -1 4 C-0.67 2.68 -0.34 1.36 0 0 Z " fill="#5F802C" transform="translate(336,282)"/>
<path d="M0 0 C2.12 0.94 2.12 0.94 4 2 C3.04 4.08 2.08 6.17 1.12 8.25 C0.59 9.41 0.06 10.57 -0.49 11.77 C-1.63 14.2 -2.78 16.61 -4 19 C-5.18 12.05 -5.14 7.39 -2 1 C-1.34 0.67 -0.68 0.34 0 0 Z " fill="#415323" transform="translate(280,254)"/>
<path d="M0 0 C2.64 0.33 5.28 0.66 8 1 C8.66 2.65 9.32 4.3 10 6 C9.34 6 8.68 6 8 6 C8 7.32 8 8.64 8 10 C6.35 10 4.7 10 3 10 C3 9.01 3 8.02 3 7 C2.01 7 1.02 7 0 7 C0 4.69 0 2.38 0 0 Z " fill="#212B14" transform="translate(303,269)"/>
<path d="M0 0 C2.64 2.64 3.34 5.59 4.44 9.06 C4.88 10.42 5.31 11.78 5.75 13.14 C5.97 13.81 6.18 14.47 6.4 15.15 C7.17 17.53 8.03 19.89 8.88 22.25 C10 26 10 26 9 29 C8.01 27.68 7.02 26.36 6 25 C5.34 25.33 4.68 25.66 4 26 C3.88 24.83 3.76 23.66 3.63 22.46 C3.46 20.91 3.29 19.36 3.12 17.81 C3.01 16.66 3.01 16.66 2.89 15.48 C2.42 11.29 1.65 7.9 0 4 C0 2.68 0 1.36 0 0 Z " fill="#7A7A7A" transform="translate(398,231)"/>
<path d="M0 0 C2 1 2 1 2.75 3 C2.97 3.85 3.2 4.69 3.44 5.56 C4.38 8.93 5.41 12.18 6.69 15.44 C8 19 8 19 8 22 C6.12 21.81 6.12 21.81 4 21 C2.75 18.44 2.75 18.44 2 16 C2.33 15.67 2.66 15.34 3 15 C2.67 14.34 2.34 13.68 2 13 C1.65 11.67 1.31 10.34 1 9 C-0.32 8.67 -1.64 8.34 -3 8 C-3 7.34 -3 6.68 -3 6 C-2.01 6 -1.02 6 0 6 C0 4.02 0 2.04 0 0 Z " fill="#6D6D6C" transform="translate(390,207)"/>
<path d="M0 0 C0.33 0 0.66 0 1 0 C1.13 0.63 1.27 1.25 1.4 1.9 C1.58 2.72 1.76 3.53 1.94 4.38 C2.2 5.59 2.2 5.59 2.46 6.84 C2.92 9.03 2.92 9.03 4 11 C3.01 11.33 2.02 11.66 1 12 C-1.32 17.58 -0.99 22.12 0 28 C-0.99 28.33 -1.98 28.66 -3 29 C-3.33 29.99 -3.66 30.98 -4 32 C-4.27 24.97 -3.22 18.41 -2 11.5 C-1.81 10.39 -1.62 9.28 -1.42 8.14 C-0.95 5.43 -0.48 2.71 0 0 Z " fill="#838383" transform="translate(364,230)"/>
<path d="M0 0 C4.1 1.66 7.6 3.59 11.12 6.25 C10.8 6.91 10.47 7.57 10.12 8.25 C7.48 7.59 4.84 6.93 2.12 6.25 C2.12 4.93 2.12 3.61 2.12 2.25 C-2.77 1.04 -7.68 0.92 -12.69 0.69 C-13.57 0.64 -14.45 0.6 -15.37 0.56 C-17.53 0.45 -19.7 0.35 -21.88 0.25 C-14.97 -3.43 -7.23 -2.51 0 0 Z " fill="#BFBFBE" transform="translate(87.875,200.75)"/>
<path d="M0 0 C0.33 0 0.66 0 1 0 C1.19 1.21 1.19 1.21 1.38 2.44 C1.58 3.28 1.79 4.13 2 5 C2.66 5.33 3.32 5.66 4 6 C4 6.66 4 7.32 4 8 C8.62 8 13.24 8 18 8 C18.33 6.68 18.66 5.36 19 4 C19.04 5.67 19.04 7.33 19 9 C18 10 18 10 16.14 10.11 C15.35 10.11 14.56 10.1 13.75 10.1 C12.89 10.09 12.04 10.09 11.16 10.09 C10.26 10.08 9.36 10.07 8.44 10.06 C7.54 10.06 6.63 10.05 5.71 10.05 C3.47 10.04 1.24 10.02 -1 10 C-1.12 3.38 -1.12 3.38 0 0 Z " fill="#8F8E8E" transform="translate(355,289)"/>
<path d="M0 0 C2.77 2.77 3.28 5.19 4 9 C2.69 11.25 2.69 11.25 1 13 C0.67 13.99 0.34 14.98 0 16 C-1.65 16 -3.3 16 -5 16 C-4.34 13.36 -3.68 10.72 -3 8 C-2.67 8 -2.34 8 -2 8 C-1.86 6.87 -1.71 5.73 -1.56 4.56 C-1 1 -1 1 0 0 Z " fill="#0E1207" transform="translate(264,281)"/>
<path d="M0 0 C0 0.66 0 1.32 0 2 C-0.99 2.5 -0.99 2.5 -2 3 C-1.48 3.56 -0.97 4.11 -0.44 4.69 C1 7 1 7 0.69 9.75 C0.46 10.49 0.23 11.24 0 12 C-3.18 11.08 -4.65 10.59 -6.38 7.69 C-7.06 4.73 -6.83 2.9 -6 0 C-2.25 -1.12 -2.25 -1.12 0 0 Z " fill="#030303" transform="translate(54,279)"/>
<path d="M0 0 C0.33 0 0.66 0 1 0 C1.5 6.93 1.5 6.93 2 14 C-4.6 14 -11.2 14 -18 14 C-18.97 10.13 -19.08 6.96 -19 3 C-16.68 6.77 -17 8.01 -17 13 C-8.58 12.5 -8.58 12.5 0 12 C0 8.04 0 4.08 0 0 Z " fill="#BCBABC" transform="translate(464,285)"/>
<path d="M0 0 C0.66 0 1.32 0 2 0 C2 0.66 2 1.32 2 2 C2.66 2 3.32 2 4 2 C6 5 6 5 6 7.38 C4.55 11.18 2.24 12.59 -1 15 C-1.66 14.67 -2.32 14.34 -3 14 C-3 13.01 -3 12.02 -3 11 C-2 10 -1 9 0 8 C1.19 5.4 1.19 5.4 2 3 C1.34 3 0.68 3 0 3 C0 2.01 0 1.02 0 0 Z " fill="#616161" transform="translate(99,209)"/>
<path d="M0 0 C0.33 1.32 0.66 2.64 1 4 C3.97 4.33 6.94 4.66 10 5 C10.33 4.34 10.66 3.68 11 3 C10.67 4.32 10.34 5.64 10 7 C3.07 7 -3.86 7 -11 7 C-10.67 5.68 -10.34 4.36 -10 3 C-10 3.99 -10 4.98 -10 6 C-7.69 6 -5.38 6 -3 6 C-2.88 5.38 -2.75 4.76 -2.62 4.12 C-2 2 -2 2 0 0 Z " fill="#A5AE99" transform="translate(268,292)"/>
<path d="M0 0 C5.64 1.47 5.64 1.47 7.31 3.94 C7.88 5.62 8.44 7.31 9 9 C8.67 9.33 8.34 9.66 8 10 C8.33 10.66 8.66 11.32 9 12 C8.01 13.49 8.01 13.49 7 15 C5.83 12.88 4.66 10.75 3.5 8.62 C3 7.72 3 7.72 2.49 6.8 C0 2.23 0 2.23 0 0 Z " fill="#4C4C4B" transform="translate(214,265)"/>
<path d="M0 0 C3.42 3.42 3.95 7.72 4.12 12.44 C4.08 13.28 4.04 14.13 4 15 C1.69 15 -0.62 15 -3 15 C-2.69 13.06 -2.69 13.06 -2 11 C-1.01 10.67 -0.02 10.34 1 10 C0.67 6.7 0.34 3.4 0 0 Z " fill="#5B614D" transform="translate(344,282)"/>
<path d="M0 0 C1.32 0.33 2.64 0.66 4 1 C4.21 6.16 3.7 8.9 2 14 C-4.27 14 -10.54 14 -17 14 C-17 13.67 -17 13.34 -17 13 C-11.06 13 -5.12 13 1 13 C0.67 10.69 0.34 8.38 0 6 C0.66 6 1.32 6 2 6 C1.34 4.02 0.68 2.04 0 0 Z " fill="#909090" transform="translate(418,285)"/>
<path d="M0 0 C2.62 2.62 3.48 5.58 4.69 9 C4.93 9.64 5.16 10.28 5.41 10.95 C6 12.61 6.51 14.3 7 16 C6.67 16.66 6.34 17.32 6 18 C3.36 16.35 0.72 14.7 -2 13 C0 12 0 12 3 12 C2.32 11.32 1.64 10.64 0.94 9.94 C-1 7 -1 7 -0.75 3.19 C-0.5 2.14 -0.25 1.08 0 0 Z " fill="#7D8473" transform="translate(330,246)"/>
<path d="M0 0 C2.87 2.42 3.71 4.6 4.69 8.19 C5.06 9.54 5.06 9.54 5.45 10.92 C5.63 11.61 5.81 12.29 6 13 C4.68 13 3.36 13 2 13 C1.94 12.42 1.88 11.84 1.81 11.25 C0.69 8.13 -1.42 6.99 -4 5 C-4 4.34 -4 3.68 -4 3 C-1 2 -1 2 0 2 C0 1.34 0 0.68 0 0 Z " fill="#78912B" transform="translate(301,211)"/>
<path d="M0 0 C2.27 3.4 2.53 5.48 3.06 9.5 C3.31 11.36 3.31 11.36 3.56 13.26 C4.14 18.16 4.62 23.07 5 28 C-0.72 19.42 -0.36 9.94 0 0 Z " fill="#8C8C8C" transform="translate(459,257)"/>
<path d="M0 0 C0.66 0.33 1.32 0.66 2 1 C1.22 1.72 0.43 2.44 -0.38 3.19 C-2.84 5.83 -3.93 7.6 -5 11 C-5.66 11 -6.32 11 -7 11 C-7.33 16.28 -7.66 21.56 -8 27 C-8.33 27 -8.66 27 -9 27 C-10.09 11.72 -10.09 11.72 -4.61 4.73 C-3.11 3.12 -1.58 1.54 0 0 Z " fill="#9E9E9C" transform="translate(56,205)"/>
<path d="M0 0 C2 0.65 4 1.32 6 2 C6.87 2.23 7.73 2.45 8.62 2.69 C12.27 4.7 13.26 7.25 15 11 C14.67 11.66 14.34 12.32 14 13 C13.75 12.38 13.5 11.76 13.25 11.12 C11.74 8.56 10.64 8.28 8 7 C6.56 6.01 5.14 4.99 3.75 3.94 C3.04 3.41 2.34 2.88 1.61 2.34 C1.08 1.9 0.55 1.46 0 1 C0 0.67 0 0.34 0 0 Z " fill="#828280" transform="translate(70,256)"/>
<path d="M0 0 C1.31 4.42 1.27 8.56 0 13 C-2.56 15.06 -2.56 15.06 -5 16 C-4.39 10.24 -2.24 5.28 0 0 Z " fill="#777B6F" transform="translate(268,266)"/>
<path d="M0 0 C0.66 0 1.32 0 2 0 C2.66 1.32 3.32 2.64 4 4 C3.5 4.39 3.01 4.78 2.5 5.19 C0.54 7.55 0.76 9.01 1 12 C-0.65 12.33 -2.3 12.66 -4 13 C-3.34 10.69 -2.68 8.38 -2 6 C-1.34 6 -0.68 6 0 6 C0 4.02 0 2.04 0 0 Z " fill="#0B1305" transform="translate(288,217)"/>
<path d="M0 0 C4.03 3.49 5.77 6.79 6.16 12.17 C6.2 14.58 6.17 16.97 6.12 19.38 C6.12 20.21 6.11 21.04 6.1 21.89 C6.07 23.93 6.04 25.96 6 28 C5.67 28 5.34 28 5 28 C4.93 26.39 4.93 26.39 4.85 24.75 C4.78 23.31 4.7 21.87 4.62 20.44 C4.59 19.73 4.56 19.03 4.53 18.3 C4.27 13.59 3.59 9.46 2 5 C0.01 3.5 0.01 3.5 -2 3 C-1.34 2.67 -0.68 2.34 0 2 C0 1.34 0 0.68 0 0 Z " fill="#979794" transform="translate(244,212)"/>
<path d="M0 0 C0.9 0.31 0.9 0.31 1.81 0.62 C0.82 1.28 -0.17 1.94 -1.19 2.62 C-1.19 3.62 -1.19 4.6 -1.19 5.62 C-1.85 5.62 -2.51 5.62 -3.19 5.62 C-3.52 5.29 -3.85 4.97 -4.19 4.62 C-4.52 5.62 -4.85 6.6 -5.19 7.62 C-6.62 9.19 -6.62 9.19 -8.19 10.62 C-8.85 11.28 -9.51 11.94 -10.19 12.62 C-10.19 11.97 -10.19 11.31 -10.19 10.62 C-10.85 10.29 -11.51 9.97 -12.19 9.62 C-11.09 8.33 -9.98 7.04 -8.88 5.75 C-8.26 5.03 -7.65 4.31 -7.01 3.57 C-3.16 -0.54 -3.16 -0.54 0 0 Z " fill="#070705" transform="translate(64.1875,201.375)"/>
<path d="M0 0 C0.33 0.66 0.66 1.32 1 2 C1.66 2 2.32 2 3 2 C3.33 1.34 3.66 0.68 4 0 C3.67 2.31 3.34 4.62 3 7 C3.66 7.33 4.32 7.66 5 8 C4.67 8.66 4.34 9.32 4 10 C3.78 11.54 3.59 13.08 3.44 14.62 C3.35 15.44 3.27 16.26 3.18 17.1 C3.12 17.73 3.06 18.35 3 19 C2.67 19 2.34 19 2 19 C0.83 12.62 -0.3 6.5 0 0 Z " fill="#666666" transform="translate(440,256)"/>
<path d="M0 0 C1.53 4.08 0.63 7.79 0 12 C-0.33 12 -0.66 12 -1 12 C-1 10.35 -1 8.7 -1 7 C-1.99 7 -2.98 7 -4 7 C-3.67 8.98 -3.34 10.96 -3 13 C-5.26 10.74 -6.04 9.03 -7 6 C-6.67 5.01 -6.34 4.02 -6 3 C-5.67 3.66 -5.34 4.32 -5 5 C-4.34 5 -3.68 5 -3 5 C-2.69 4.36 -2.38 3.72 -2.06 3.06 C-1 1 -1 1 0 0 Z " fill="#52544B" transform="translate(329,278)"/>
<path d="M0 0 C2 3 2 3 2 5 C3.32 5 4.64 5 6 5 C6 9.33 6 13.67 6 18 C3.53 15.53 2.97 13.44 1.88 10.12 C1.52 9.08 1.17 8.03 0.8 6.95 C0 4 0 4 0 0 Z " fill="#868685" transform="translate(391,268)"/>
<path d="M0 0 C0.33 0.66 0.66 1.32 1 2 C2.98 2.73 4.98 3.4 7 4 C7 4.99 7 5.98 7 7 C5.68 6.34 4.36 5.68 3 5 C3 5.66 3 6.32 3 7 C3.99 7.33 4.98 7.66 6 8 C6 10.31 6 12.62 6 15 C3.22 13.61 3 12.04 1.88 9.19 C1.52 8.31 1.17 7.44 0.8 6.54 C0 4 0 4 0 0 Z " fill="#777D68" transform="translate(307,241)"/>
<path d="M0 0 C0.99 0.33 1.98 0.66 3 1 C2.62 3.44 2.62 3.44 2 6 C1.01 6.5 1.01 6.5 0 7 C0 6.34 0 5.68 0 5 C-0.66 5 -1.32 5 -2 5 C-2 6.98 -2 8.96 -2 11 C-2.99 11.33 -3.98 11.66 -5 12 C-4.75 10.52 -4.47 9.04 -4.19 7.56 C-4.04 6.74 -3.89 5.92 -3.73 5.07 C-3.49 4.38 -3.25 3.7 -3 3 C-2.01 2.67 -1.02 2.34 0 2 C0 1.34 0 0.68 0 0 Z " fill="#121A0A" transform="translate(290,212)"/>
<path d="M0 0 C0 0.99 0 1.98 0 3 C-0.99 3.33 -1.98 3.66 -3 4 C-3 4.66 -3 5.32 -3 6 C-9.75 10 -9.75 10 -12 10 C-11.67 8.68 -11.34 7.36 -11 6 C-9.68 6 -8.36 6 -7 6 C-6.67 4.35 -6.34 2.7 -6 1 C-5.38 1.21 -4.76 1.41 -4.12 1.62 C-3.07 1.81 -3.07 1.81 -2 2 C-1.34 1.34 -0.68 0.68 0 0 Z " fill="#757574" transform="translate(100,289)"/>
<path d="M0 0 C3.59 1.62 6.59 3.79 9.75 6.12 C10.73 6.85 11.72 7.57 12.73 8.32 C13.48 8.87 14.23 9.43 15 10 C12 12 12 12 10 12 C9.94 11.07 9.94 11.07 9.88 10.12 C9.59 9.42 9.3 8.72 9 8 C8.05 7.71 7.1 7.42 6.12 7.12 C3 6 3 6 1.12 2.88 C0.75 1.93 0.38 0.98 0 0 Z " fill="#7A7A78" transform="translate(70,231)"/>
<path d="M0 0 C0.33 1.32 0.66 2.64 1 4 C0.36 4.1 -0.28 4.21 -0.94 4.31 C-1.62 4.54 -2.3 4.77 -3 5 C-3.33 5.99 -3.66 6.98 -4 8 C-5.46 7.89 -6.92 7.76 -8.38 7.62 C-9.59 7.52 -9.59 7.52 -10.84 7.41 C-13 7 -13 7 -15 5 C-14.24 4.94 -13.48 4.88 -12.7 4.82 C-11.71 4.73 -10.71 4.65 -9.69 4.56 C-8.7 4.48 -7.72 4.4 -6.7 4.32 C-3.91 4.08 -3.91 4.08 -1 3 C-0.67 2.01 -0.34 1.02 0 0 Z " fill="#8F8F8D" transform="translate(85,276)"/>
<path d="M0 0 C0.56 1.94 0.56 1.94 1 4 C0.67 4.33 0.34 4.66 0 5 C-0.23 6.68 -0.41 8.37 -0.56 10.06 C-0.69 11.44 -0.69 11.44 -0.82 12.85 C-0.88 13.56 -0.94 14.27 -1 15 C-1.99 15.33 -2.98 15.66 -4 16 C-4.66 16.66 -5.32 17.32 -6 18 C-5.32 13.82 -3.99 10.12 -2.44 6.19 C-1.75 4.45 -1.75 4.45 -1.06 2.67 C-0.71 1.79 -0.36 0.91 0 0 Z " fill="#90938A" transform="translate(278,240)"/>
<path d="M0 0 C2.64 0.38 3.77 0.75 5.6 2.74 C6.08 3.45 6.56 4.15 7.06 4.88 C8.88 7.49 10.68 9.81 13 12 C11.68 11.67 10.36 11.34 9 11 C8.67 11.66 8.34 12.32 8 13 C7.94 12.44 7.88 11.89 7.81 11.31 C6.67 8.07 4.43 6.37 2 4 C2 3.34 2 2.68 2 2 C1.34 1.34 0.68 0.68 0 0 Z " fill="#878786" transform="translate(57,269)"/>
<path d="M0 0 C2.79 1.39 3.3 3.18 4.69 5.94 C5.15 6.83 5.6 7.73 6.07 8.65 C6.38 9.43 6.69 10.2 7 11 C6.67 11.66 6.34 12.32 6 13 C4.68 12.34 3.36 11.68 2 11 C2 9.35 2 7.7 2 6 C0.68 5.67 -0.64 5.34 -2 5 C-2 4.34 -2 3.68 -2 3 C-1.34 2.67 -0.68 2.34 0 2 C0 1.34 0 0.68 0 0 Z " fill="#686866" transform="translate(232,258)"/>
<path d="M0 0 C0.33 0 0.66 0 1 0 C1.34 2.06 1.67 4.12 2 6.19 C2.19 7.34 2.37 8.48 2.56 9.67 C2.93 12.5 3.09 15.15 3 18 C0.98 16.45 0.98 16.45 -1 14 C-1.17 10.55 -1.17 10.55 -0.75 6.75 C-0.62 5.49 -0.49 4.22 -0.36 2.92 C-0.24 1.96 -0.12 0.99 0 0 Z " fill="#7E7E7E" transform="translate(455,230)"/>
<path d="M0 0 C2.35 -0.05 4.71 -0.09 7.06 -0.12 C9.03 -0.16 9.03 -0.16 11.04 -0.2 C15.12 0.01 18.15 0.73 22 2 C19.54 3.23 17.72 3.07 15 3 C14.67 3.66 14.34 4.32 14 5 C13.01 4.67 12.02 4.34 11 4 C11.33 3.01 11.66 2.02 12 1 C8.04 1 4.08 1 0 1 C0 0.67 0 0.34 0 0 Z " fill="#70716E" transform="translate(213,202)"/>
<path d="M0 0 C1.12 3.75 1.12 3.75 0 6 C1.98 5.67 3.96 5.34 6 5 C6.33 5.66 6.66 6.32 7 7 C5.35 7 3.7 7 2 7 C2 7.99 2 8.98 2 10 C1.34 10 0.68 10 0 10 C0 9.34 0 8.68 0 8 C-0.66 8 -1.32 8 -2 8 C-2.33 8.99 -2.66 9.98 -3 11 C-2.45 7.05 -1.61 3.65 0 0 Z " fill="#6C7564" transform="translate(284,224)"/>
<path d="M0 0 C2 1 2 1 2 1 Z M-2 1 C-1.34 1 -0.68 1 0 1 C-0.39 3.84 -0.73 5.65 -2.5 7.94 C-4.41 10.56 -4.64 12.82 -5 16 C-5.33 16 -5.66 16 -6 16 C-6.35 10.34 -5.48 6.96 -3 2 C-2.67 1.67 -2.34 1.34 -2 1 Z " fill="#5D5D5D" transform="translate(371,212)"/>
<path d="M0 0 C2.34 2.13 3.94 4 5 7 C4.62 9.75 4.62 9.75 4 12 C2.68 10.68 1.36 9.36 0 8 C0.66 7.01 1.32 6.02 2 5 C1.01 4.67 0.02 4.34 -1 4 C-0.67 2.68 -0.34 1.36 0 0 Z " fill="#515151" transform="translate(239,271)"/>
<path d="M0 0 C0.66 0 1.32 0 2 0 C2 0.66 2 1.32 2 2 C2.58 2.23 3.16 2.45 3.75 2.69 C6.57 4.33 8.08 6.4 10 9 C8.35 9 6.7 9 5 9 C5.33 8.01 5.66 7.02 6 6 C3.03 5.5 3.03 5.5 0 5 C0 3.35 0 1.7 0 0 Z " fill="#6C6C6A" transform="translate(88,244)"/>
<path d="M0 0 C0.99 0.33 1.98 0.66 3 1 C2.67 3.31 2.34 5.62 2 8 C1.01 8.33 0.02 8.66 -1 9 C-1.1 2.85 -1.1 2.85 -1 1 C-0.67 0.67 -0.34 0.34 0 0 Z " fill="#111A07" transform="translate(278,244)"/>
<path d="M0 0 C0.33 0 0.66 0 1 0 C1.66 3.3 2.32 6.6 3 10 C2.01 10 1.02 10 0 10 C-1.49 10.99 -1.49 10.99 -3 12 C-2.69 10.37 -2.38 8.75 -2.06 7.12 C-1.89 6.22 -1.71 5.32 -1.54 4.38 C-1 2 -1 2 0 0 Z " fill="#6C6C6C" transform="translate(419,236)"/>
<path d="M0 0 C2.97 0.5 2.97 0.5 6 1 C6 1.99 6 2.98 6 4 C7.65 4 9.3 4 11 4 C10.01 4.5 10.01 4.5 9 5 C9.33 5.99 9.66 6.98 10 8 C4.99 6.57 3.06 4.02 0 0 Z " fill="#686864" transform="translate(49,289)"/>
<path d="M0 0 C0.33 0 0.66 0 1 0 C1.33 4.62 1.66 9.24 2 14 C1.01 14.33 0.02 14.66 -1 15 C-1.18 4.44 -1.18 4.44 0 0 Z " fill="#676666" transform="translate(357,275)"/>
<path d="M0 0 C0.33 0.99 0.66 1.98 1 3 C2.65 3.33 4.3 3.66 6 4 C5.01 5.49 5.01 5.49 4 7 C3.62 8.66 3.27 10.32 3 12 C2.34 11.67 1.68 11.34 1 11 C0.59 8.5 0.59 8.5 0.38 5.44 C0.3 4.43 0.23 3.41 0.15 2.37 C0.1 1.59 0.05 0.81 0 0 Z " fill="#505050" transform="translate(443,276)"/>
<path d="M0 0 C2.16 3.24 3.63 6.35 5 10 C4.67 10.99 4.34 11.98 4 13 C3.67 12.34 3.34 11.68 3 11 C2.67 12.65 2.34 14.3 2 16 C1.67 16 1.34 16 1 16 C0.67 10.72 0.34 5.44 0 0 Z " fill="#ADB997" transform="translate(339,269)"/>
<path d="M0 0 C0.66 0.33 1.32 0.66 2 1 C0.62 2.5 0.62 2.5 -1 4 C-1.66 4 -2.32 4 -3 4 C-2.67 4.99 -2.34 5.98 -2 7 C-2.66 7.66 -3.32 8.32 -4 9 C-4.99 9 -5.98 9 -7 9 C-6.39 6.04 -5.75 4.62 -4 2 C-2 0.75 -2 0.75 0 0 Z " fill="#404040" transform="translate(55,270)"/>
<path d="M0 0 C1.46 0.28 2.92 0.58 4.38 0.88 C5.19 1.04 6 1.2 6.84 1.37 C9 2 9 2 11 4 C10.67 4.66 10.34 5.32 10 6 C9.34 6 8.68 6 8 6 C8 5.34 8 4.68 8 4 C5.36 3.67 2.72 3.34 0 3 C0 2.01 0 1.02 0 0 Z " fill="#557526" transform="translate(292,228)"/>
<path d="M0 0 C1.68 0.29 3.34 0.62 5 1 C4.67 1.66 4.34 2.32 4 3 C4.33 3.99 4.66 4.98 5 6 C3.76 5.54 3.76 5.54 2.5 5.06 C-1.39 3.88 -4.96 3.42 -9 3 C-9 2.67 -9 2.34 -9 2 C-6.95 1.77 -4.9 1.54 -2.85 1.32 C-0.99 1.18 -0.99 1.18 0 0 Z " fill="#777776" transform="translate(80,216)"/>
<path d="M0 0 C2.97 0.5 2.97 0.5 6 1 C6 1.66 6 2.32 6 3 C6.66 3 7.32 3 8 3 C8.33 3.99 8.66 4.98 9 6 C8.01 6.5 8.01 6.5 7 7 C6.01 6.34 5.02 5.68 4 5 C4 4.34 4 3.68 4 3 C2.68 3 1.36 3 0 3 C0 2.01 0 1.02 0 0 Z " fill="#050E01" transform="translate(294,203)"/>
<path d="M0 0 C0.33 0 0.66 0 1 0 C1 3.63 1 7.26 1 11 C0.34 10.34 -0.32 9.68 -1 9 C-1 10.32 -1 11.64 -1 13 C-1.99 13 -2.98 13 -4 13 C-3.52 11.21 -3.04 9.42 -2.56 7.62 C-2.3 6.63 -2.03 5.63 -1.75 4.6 C-1 2 -1 2 0 0 Z " fill="#7F807A" transform="translate(262,282)"/>
<path d="M0 0 C0.88 0.19 1.77 0.39 2.68 0.59 C3.67 0.82 3.67 0.82 4.69 1.06 C1.18 3.4 0.13 3.22 -3.94 2.81 C-4.92 2.72 -5.9 2.64 -6.91 2.55 C-7.71 2.39 -8.5 2.23 -9.31 2.06 C-9.64 1.4 -9.97 0.74 -10.31 0.06 C-6.52 -0.92 -3.81 -0.86 0 0 Z " fill="#445227" transform="translate(307.3125,266.9375)"/>
<path d="M0 0 C1.04 3.13 0.93 3.99 0 7 C-0.66 7 -1.32 7 -2 7 C-2 8.65 -2 10.3 -2 12 C-2.99 12.33 -3.98 12.66 -5 13 C-5.33 13.66 -5.66 14.32 -6 15 C-5.4 11.15 -4.23 8.14 -2.44 4.69 C-1.98 3.8 -1.53 2.92 -1.06 2.01 C-0.53 1.02 -0.53 1.02 0 0 Z " fill="#7B9650" transform="translate(283,257)"/>
<path d="M0 0 C0 3.3 0 6.6 0 10 C-4 7 -4 7 -4.75 4.81 C-4.83 4.21 -4.92 3.62 -5 3 C-1.12 0 -1.12 0 0 0 Z " fill="#6B883F" transform="translate(292,263)"/>
<path d="M0 0 C0.93 3.01 1.04 3.87 0 7 C0.66 7.33 1.32 7.66 2 8 C1.34 8 0.68 8 0 8 C0 8.66 0 9.32 0 10 C-0.99 10.33 -1.98 10.66 -3 11 C-2.69 9.54 -2.38 8.08 -2.06 6.62 C-1.89 5.81 -1.71 5 -1.54 4.16 C-1 2 -1 2 0 0 Z M4 4 C4.33 4.66 4.66 5.32 5 6 C4.34 5.67 3.68 5.34 3 5 C3.33 4.67 3.66 4.34 4 4 Z " fill="#737372" transform="translate(426,215)"/>
<path d="M0 0 C2.48 3.72 2.44 6.7 2 11 C1 14 1 14 0 16 C-0.66 15.67 -1.32 15.34 -2 15 C-1.67 13.35 -1.34 11.7 -1 10 C-0.34 10 0.32 10 1 10 C0.67 6.7 0.34 3.4 0 0 Z " fill="#677747" transform="translate(337,264)"/>
<path d="M0 0 C1.88 0.19 1.88 0.19 4 1 C5.31 3.38 5.31 3.38 6 6 C5.67 6.99 5.34 7.98 5 9 C4.01 7.68 3.02 6.36 2 5 C1.01 5.5 1.01 5.5 0 6 C0 4.02 0 2.04 0 0 Z " fill="#595959" transform="translate(402,251)"/>
<path d="M0 0 C0.56 0.19 1.11 0.37 1.69 0.56 C4.4 1.08 6.34 0.66 9 0 C9 0.66 9 1.32 9 2 C8.34 2 7.68 2 7 2 C7 2.66 7 3.32 7 4 C5.19 4.69 5.19 4.69 3 5 C1.25 3.69 1.25 3.69 0 2 C0 1.34 0 0.68 0 0 Z " fill="#8B8A88" transform="translate(87,224)"/>
<path d="M0 0 C1.9 2.86 2.69 4.93 3.62 8.19 C4.02 9.54 4.02 9.54 4.41 10.92 C4.61 11.61 4.8 12.29 5 13 C2 12 2 12 0 9 C-0.2 6.74 -0.2 6.74 -0.12 4.31 C-0.11 3.5 -0.09 2.7 -0.07 1.86 C-0.05 1.25 -0.02 0.63 0 0 Z " fill="#9AA190" transform="translate(317,212)"/>
<path d="M0 0 C3.49 0.65 6.03 2.1 9 4 C8.67 4.66 8.34 5.32 8 6 C5.36 5.34 2.72 4.68 0 4 C0 2.68 0 1.36 0 0 Z " fill="#616161" transform="translate(90,203)"/>
<path d="M0 0 C2.16 3.24 3.63 6.35 5 10 C4.67 10.99 4.34 11.98 4 13 C3.67 11.68 3.34 10.36 3 9 C2.34 9 1.68 9 1 9 C-0.48 6.04 -0.06 3.26 0 0 Z " fill="#959A8B" transform="translate(325,233)"/>
<path d="M0 0 C0.66 0.33 1.32 0.66 2 1 C1.34 1.66 0.68 2.32 0 3 C-0.17 5.96 -0.17 5.96 0 9 C0 9.99 0 10.98 0 12 C-0.99 12.5 -0.99 12.5 -2 13 C-2.66 12.34 -3.32 11.68 -4 11 C-3.83 8.91 -3.83 8.91 -3.25 6.5 C-3.07 5.71 -2.89 4.91 -2.7 4.09 C-2 2 -2 2 0 0 Z " fill="#939390" transform="translate(69,219)"/>
<path d="M0 0 C1.98 0.66 3.96 1.32 6 2 C5.67 2.99 5.34 3.98 5 5 C4.01 5 3.02 5 2 5 C1.67 5.66 1.34 6.32 1 7 C0.67 4.69 0.34 2.38 0 0 Z " fill="#455034" transform="translate(317,223)"/>
<path d="M0 0 C1.32 0 2.64 0 4 0 C4 2.97 4 5.94 4 9 C0.69 5.69 0.5 4.47 0 0 Z " fill="#5E5E5E" transform="translate(48,231)"/>
<path d="M0 0 C2.14 2.14 2.43 3.13 3 6 C2.01 6.5 2.01 6.5 1 7 C1.33 8.98 1.66 10.96 2 13 C-0.36 10.64 -0.37 9.74 -0.69 6.5 C-0.77 5.71 -0.86 4.91 -0.95 4.09 C-1 2 -1 2 0 0 Z " fill="#7E8A6C" transform="translate(305,228)"/>
<path d="M0 0 C0.66 0.33 1.32 0.66 2 1 C2.41 3.07 2.41 3.07 2.62 5.56 C2.7 6.39 2.77 7.22 2.85 8.07 C2.9 8.7 2.95 9.34 3 10 C1.02 9.34 -0.96 8.68 -3 8 C-3 7.34 -3 6.68 -3 6 C-2.01 6 -1.02 6 0 6 C0 4.02 0 2.04 0 0 Z " fill="#3F3E3D" transform="translate(390,207)"/>
<path d="M0 0 C0.99 0.33 1.98 0.66 3 1 C2.5 4.69 1.9 6.6 -1 9 C-1.12 2.25 -1.12 2.25 0 0 Z " fill="#30450D" transform="translate(278,259)"/>
<path d="M0 0 C2.29 3.44 2.18 4.99 2 9 C1.67 8.34 1.34 7.68 1 7 C0.34 7 -0.32 7 -1 7 C-1.33 7.99 -1.66 8.98 -2 10 C-2 8.02 -2 6.04 -2 4 C-1.34 4 -0.68 4 0 4 C0 2.68 0 1.36 0 0 Z " fill="#5B624E" transform="translate(323,228)"/>
<path d="M0 0 C2.64 0.33 5.28 0.66 8 1 C8.33 2.65 8.66 4.3 9 6 C7.68 5.38 6.37 4.76 5.06 4.12 C4.33 3.78 3.6 3.43 2.85 3.07 C1 2 1 2 0 0 Z " fill="#5D664B" transform="translate(328,258)"/>
<path d="M0 0 C0.66 0.99 1.32 1.98 2 3 C1.67 3.99 1.34 4.98 1 6 C0.34 6 -0.32 6 -1 6 C-1.33 6.99 -1.66 7.98 -2 9 C-2 6.36 -2 3.72 -2 1 C-1.34 0.67 -0.68 0.34 0 0 Z " fill="#4B4B4B" transform="translate(362,253)"/>
<path d="M0 0 C1.32 0.33 2.64 0.66 4 1 C4.33 2.98 4.66 4.96 5 7 C4.01 6.67 3.02 6.34 2 6 C0.81 2.94 0.81 2.94 0 0 Z " fill="#5E5E5E" transform="translate(227,289)"/>
<path d="M0 0 C2.64 0.66 5.28 1.32 8 2 C8 2.66 8 3.32 8 4 C5.69 4.33 3.38 4.66 1 5 C0.67 3.35 0.34 1.7 0 0 Z " fill="#292E1B" transform="translate(305,233)"/>
<path d="M0 0 C1.98 0.66 3.96 1.32 6 2 C5.01 2.5 5.01 2.5 4 3 C4.33 4.98 4.66 6.96 5 9 C1.96 7.48 1.36 5.02 0 2 C0 1.34 0 0.68 0 0 Z " fill="#808080" transform="translate(222,280)"/>
<path d="M0 0 C1.16 3.48 0.77 4.34 -0.44 7.69 C-0.72 8.5 -1.01 9.3 -1.31 10.14 C-1.65 11.06 -1.65 11.06 -2 12 C-3.16 8.07 -2.84 5.03 -2 1 C-1.34 0.67 -0.68 0.34 0 0 Z " fill="#A7A7A7" transform="translate(437,240)"/>
<path d="M0 0 C1.32 0.66 2.64 1.32 4 2 C1.77 3.11 0.47 3.16 -2 3.19 C-3.05 3.21 -3.05 3.21 -4.12 3.23 C-6 3 -6 3 -8 1 C-6.87 1.02 -5.73 1.04 -4.56 1.06 C-1.18 1.42 -1.18 1.42 0 0 Z " fill="#545451" transform="translate(67,296)"/>
<path d="M0 0 C2.17 0.51 4 1 6 2 C6 2.66 6 3.32 6 4 C6.99 4.33 7.98 4.66 9 5 C8.67 5.66 8.34 6.32 8 7 C4.46 5.09 2.21 3.37 0 0 Z " fill="#A4A4A3" transform="translate(235,205)"/>
<path d="M0 0 C0.87 0.34 0.87 0.34 1.75 0.69 C0.76 1.35 -0.23 2.01 -1.25 2.69 C-1.25 3.68 -1.25 4.67 -1.25 5.69 C-1.91 5.69 -2.57 5.69 -3.25 5.69 C-3.25 5.03 -3.25 4.37 -3.25 3.69 C-4.24 3.36 -5.23 3.03 -6.25 2.69 C-2.8 -0.39 -2.8 -0.39 0 0 Z " fill="#828180" transform="translate(64.25,201.3125)"/>
<path d="M0 0 C0.66 0 1.32 0 2 0 C2.33 0.99 2.66 1.98 3 3 C2.34 3 1.68 3 1 3 C1.33 3.99 1.66 4.98 2 6 C-0.47 5.01 -0.47 5.01 -3 4 C-2 2 -2 2 0 0 Z " fill="#5E5E5B" transform="translate(68,250)"/>
<path d="M0 0 C0.66 0 1.32 0 2 0 C2.33 1.98 2.66 3.96 3 6 C2.34 6 1.68 6 1 6 C0.67 6.66 0.34 7.32 0 8 C0 5.36 0 2.72 0 0 Z " fill="#C4C4C4" transform="translate(381,240)"/>
<path d="M0 0 C1.53 3.07 0.55 5.7 0 9 C-0.99 9.33 -1.98 9.66 -3 10 C-2.69 8.52 -2.38 7.04 -2.06 5.56 C-1.8 4.33 -1.8 4.33 -1.54 3.07 C-1 1 -1 1 0 0 Z " fill="#9A9B97" transform="translate(288,214)"/>
<path d="M0 0 C0.98 2.93 1.08 4.96 1 8 C0.01 8.33 -0.98 8.66 -2 9 C-2.33 9.66 -2.66 10.32 -3 11 C-2.69 9.54 -2.38 8.08 -2.06 6.62 C-1.89 5.81 -1.71 5 -1.54 4.16 C-1 2 -1 2 0 0 Z " fill="#9EA398" transform="translate(292,203)"/>
</svg>
